<svg width="52" height="52" viewBox="0 0 52 52" fill="none" xmlns="http://www.w3.org/2000/svg">
  <circle cx="26" cy="26" r="26" fill="#0052FF"/>
  <g transform="translate(26,26) scale(0.75) translate(-26,-26)">
    <path d="M25.6238 0L25.2607 1.18492V35.5685L25.6238 35.9165L42.2477 26.4823L25.6238 0Z" fill="#e3e3e3"/>
    <path d="M25.6239 0L9 26.4823L25.6239 35.9166V19.2278V0Z" fill="#f3f3f3"/>
    <path d="M25.6238 38.9385L25.4192 39.1779V51.4261L25.6238 52L42.2576 29.509L25.6238 38.9385Z" fill="#e3e3e3"/>
    <path d="M25.6239 51.9998V38.9383L9 29.5088L25.6239 51.9998Z" fill="#f3f3f3"/>
    <path d="M25.6238 35.9164L42.2474 26.4824L25.6238 19.2279V35.9164Z" fill="#d3d3d3"/>
    <path d="M9.00012 26.4824L25.6238 35.9165V19.228L9.00012 26.4824Z" fill="#e3e3e3"/>  
  </g>
  </svg>
